<?xml version="1.0" encoding="UTF-8"?>
<!DOCTYPE svg PUBLIC "-//W3C//DTD SVG 1.1//EN" "http://www.w3.org/Graphics/SVG/1.1/DTD/svg11.dtd">
<!-- Creator: CorelDRAW -->
<svg xmlns="http://www.w3.org/2000/svg" xml:space="preserve" width="6.67474in" height="6.66492in" version="1.1" style="shape-rendering:geometricPrecision; text-rendering:geometricPrecision; image-rendering:optimizeQuality; fill-rule:evenodd; clip-rule:evenodd"
viewBox="0 0 6683.09 6673.25"
 xmlns:xlink="http://www.w3.org/1999/xlink"
 xmlns:xodm="http://www.corel.com/coreldraw/odm/2003">
 <defs>
  <style type="text/css">
   <![CDATA[
    .fil0 {fill:#FEFEFE}
    .fil1 {fill:#D90404}
   ]]>
  </style>
 </defs>
 <g id="Layer_x0020_1">
  <metadata id="CorelCorpID_0Corel-Layer"/>
  <g id="_1393663216">
   <rect class="fil0" x="1435.51" y="1127.18" width="3735.79" height="4223.08"/>
   <g>
    <path class="fil1" d="M3014.05 14.52c-781.98,78.72 -1479.14,409.21 -2034.27,964.34 -315.54,315.53 -545.74,654.47 -712.26,1048.66 -447.07,1058.38 -328.78,2250.32 317.28,3196.7 215.51,315.7 549.1,649.29 864.8,864.8 1141.21,779.06 2638.59,778.96 3775.55,-0.23 319.68,-219.1 645.47,-544.89 864.57,-864.57 91.19,-133.05 152.3,-237.52 231.05,-394.96 185.72,-371.3 285.71,-714.52 340.72,-1169.49 18.44,-152.45 29.26,-531.92 15.16,-531.92 -5.23,0 -12.7,-43.42 -16.61,-96.47 -9.73,-132.17 -51.23,-375.94 -88.46,-519.61 -153.47,-592.29 -443.97,-1100.29 -876.6,-1532.93 -432.6,-432.6 -939.95,-722.94 -1530.8,-876.06 -352.69,-91.39 -787.55,-124.76 -1150.13,-88.26l0 0zm-67.81 2925.45c-722.77,722.71 -1315.77,1321.78 -1317.78,1331.29 -4.34,20.47 745.55,775.66 770.2,775.66 20.53,0 2649.19,-2628.69 2649.19,-2649.22 0,-20.44 -751.42,-771.72 -771.87,-771.72 -8.58,0 -606.96,591.3 -1329.73,1314l0 0zm1209.82 -1063.64l-114.4 114.76 195.41 195.62c133.41,133.55 195.42,202.8 195.42,218.24 0,26.99 -25.85,55.4 -50.4,55.4 -9.68,0 -104.34,-86.83 -210.35,-192.95 -106.01,-106.12 -197.56,-192.95 -203.44,-192.95 -5.89,0 -64.52,53.97 -130.29,119.92l-119.57 119.91 91.91 92.34c78.81,79.16 91.42,96.62 88.46,122.39 -2.51,21.9 -11.3,32.78 -32.41,40.16 -27.23,9.52 -34.41,4.7 -120.15,-80.64 -50.15,-49.92 -95.86,-90.76 -101.58,-90.76 -5.72,0 -64.23,53.98 -130.03,119.97l-119.64 119.97 196.28 196.49c174.92,175.09 195.89,199.75 192.81,226.62 -2.53,22.04 -11.27,32.87 -32.51,40.3 -27.94,9.77 -36.7,2.5 -229.59,-190.19l-200.53 -200.33 -124.83 125.16 -124.84 125.17 91.92 92.33c78.8,79.17 91.42,96.63 88.46,122.39 -2.51,21.9 -11.29,32.78 -32.41,40.16 -27.23,9.52 -34.41,4.71 -120.15,-80.64 -50.15,-49.92 -95.86,-90.76 -101.58,-90.76 -5.72,0 -64.23,53.98 -130.02,119.97l-119.64 119.97 196.28 196.49c174.92,175.09 195.89,199.75 192.82,226.61 -2.53,22.04 -11.27,32.88 -32.51,40.3 -27.94,9.77 -36.7,2.5 -229.59,-190.19l-200.53 -200.33 -124.83 125.16 -124.84 125.16 91.92 92.34c78.8,79.17 91.41,96.63 88.46,122.39 -2.51,21.9 -11.3,32.78 -32.43,40.16 -27.3,9.56 -34.51,4.61 -125.33,-85.84l-96.36 -95.97 -124.84 125.17 -124.84 125.18 196.26 196.48c174.93,175.1 195.9,199.76 192.82,226.63 -2.53,22.04 -11.27,32.88 -32.51,40.3 -27.94,9.78 -36.7,2.5 -229.58,-190.17l-200.53 -200.33 -135.38 135.68 -135.37 135.67 320.64 320.64 320.64 320.63 1259.33 -1259.33 1259.34 -1259.34 -318 -318.14c-174.91,-174.98 -320.46,-318.14 -323.47,-318.14 -3,0 -56.94,51.65 -119.87,114.77l0 0zm-4151.82 1460.11c0,111.86 1.53,157.62 3.41,101.69 1.87,-55.94 1.87,-147.44 0,-203.38 -1.88,-55.93 -3.41,-10.17 -3.41,101.69z"/>
   </g>
  </g>
 </g>
</svg>
